<?xml version="1.0" encoding="UTF-8" standalone="no"?>
<!-- Created with Inkscape (http://www.inkscape.org/) -->

<svg
   width="768"
   height="768"
   viewBox="0 0 768 768"
   version="1.1"
   id="svg5"
   inkscape:version="1.2.2 (732a01da63, 2022-12-09)"
   sodipodi:docname="AppIcon.svg"
   xml:space="preserve"
   xmlns:inkscape="http://www.inkscape.org/namespaces/inkscape"
   xmlns:sodipodi="http://sodipodi.sourceforge.net/DTD/sodipodi-0.dtd"
   xmlns:xlink="http://www.w3.org/1999/xlink"
   xmlns="http://www.w3.org/2000/svg"
   xmlns:svg="http://www.w3.org/2000/svg"
   xmlns:rdf="http://www.w3.org/1999/02/22-rdf-syntax-ns#"
   xmlns:cc="http://creativecommons.org/ns#"
   xmlns:dc="http://purl.org/dc/elements/1.1/"><title
     id="title134">DBGware.RobotStudioLite.AppIcon</title><sodipodi:namedview
     id="namedview7"
     pagecolor="#505050"
     bordercolor="#eeeeee"
     borderopacity="1"
     inkscape:showpageshadow="0"
     inkscape:pageopacity="0"
     inkscape:pagecheckerboard="true"
     inkscape:deskcolor="#505050"
     inkscape:document-units="px"
     showgrid="false"
     inkscape:zoom="1"
     inkscape:cx="285.5"
     inkscape:cy="373"
     inkscape:window-width="2560"
     inkscape:window-height="1334"
     inkscape:window-x="-11"
     inkscape:window-y="-11"
     inkscape:window-maximized="1"
     inkscape:current-layer="layer1"
     showguides="true"
     inkscape:lockguides="true"><sodipodi:guide
       position="768,384"
       orientation="0,-1"
       id="guide374"
       inkscape:locked="true" /><sodipodi:guide
       position="384,768"
       orientation="1,0"
       id="guide376"
       inkscape:locked="true" /><sodipodi:guide
       position="252.78071,283.37588"
       orientation="1,0"
       id="guide15793"
       inkscape:locked="true" /><sodipodi:guide
       position="375.1614,160.9952"
       orientation="0,-1"
       id="guide15795"
       inkscape:locked="true" /></sodipodi:namedview><defs
     id="defs2"><linearGradient
       inkscape:collect="always"
       id="linearGradient9359"><stop
         style="stop-color:#ae7fe2;stop-opacity:1;"
         offset="0"
         id="stop9355" /><stop
         style="stop-color:#9a70d4;stop-opacity:1;"
         offset="1"
         id="stop9357" /></linearGradient><linearGradient
       inkscape:collect="always"
       xlink:href="#linearGradient9359"
       id="linearGradient1948"
       x1="660.71631"
       y1="260.25952"
       x2="660.71631"
       y2="341.84665"
       gradientUnits="userSpaceOnUse" /><linearGradient
       inkscape:collect="always"
       xlink:href="#linearGradient9359"
       id="linearGradient5683"
       x1="492.22278"
       y1="105.5"
       x2="492.22278"
       y2="327.01358"
       gradientUnits="userSpaceOnUse" /><linearGradient
       inkscape:collect="always"
       xlink:href="#linearGradient9359"
       id="linearGradient5691"
       x1="395.55817"
       y1="35.894947"
       x2="395.55817"
       y2="199.06918"
       gradientUnits="userSpaceOnUse" /><linearGradient
       inkscape:collect="always"
       xlink:href="#linearGradient9359"
       id="linearGradient5699"
       x1="139.13438"
       y1="165.93008"
       x2="139.13438"
       y2="546.01959"
       gradientUnits="userSpaceOnUse" /><linearGradient
       inkscape:collect="always"
       xlink:href="#linearGradient9359"
       id="linearGradient5707"
       x1="252.78072"
       y1="566.21124"
       x2="252.78072"
       y2="607.00482"
       gradientUnits="userSpaceOnUse" /><linearGradient
       inkscape:collect="always"
       xlink:href="#linearGradient9359"
       id="linearGradient5715"
       x1="252.78072"
       y1="484.62411"
       x2="252.78072"
       y2="732.10504"
       gradientUnits="userSpaceOnUse" /><filter
       style="color-interpolation-filters:sRGB;"
       inkscape:label="Drop Shadow"
       id="filter12721"
       x="-0.01889705"
       y="-0.017236176"
       width="1.0377941"
       height="1.0344724"><feFlood
         flood-opacity="0.5"
         flood-color="rgb(0,0,0)"
         result="flood"
         id="feFlood12711" /><feComposite
         in="flood"
         in2="SourceGraphic"
         operator="in"
         result="composite1"
         id="feComposite12713" /><feGaussianBlur
         in="composite1"
         stdDeviation="5"
         result="blur"
         id="feGaussianBlur12715" /><feOffset
         dx="0"
         dy="0"
         result="offset"
         id="feOffset12717" /><feComposite
         in="SourceGraphic"
         in2="offset"
         operator="over"
         result="composite2"
         id="feComposite12719" /></filter></defs><g
     inkscape:label="layer1"
     inkscape:groupmode="layer"
     id="layer1"
     style="display:inline;stroke:none;stroke-opacity:1;filter:url(#filter12721)"
     sodipodi:insensitive="true"><path
       d="M 415.95496,691.31149 H 375.1614 V 607.0048 C 375.1614,539.41531 320.3702,484.62412 252.78071,484.62412 185.19122,484.62412 130.40003,539.41531 130.40003,607.0048 V 691.31149 H 86.886899 C 75.612919,691.31149 66.490119,700.43429 66.490119,711.70827 66.490119,722.98225 75.612919,732.10505 86.886899,732.10505 H 415.95496 C 427.22894,732.10505 436.35174,722.98225 436.35174,711.70827 436.35174,700.43429 427.22894,691.31149 415.95496,691.31149 Z M 252.78071,647.79836 C 219.039,647.79836 191.59037,620.34973 191.59037,586.60802 191.59037,552.8663 219.039,525.41768 252.78071,525.41768 286.52243,525.41768 313.97105,552.8663 313.97105,586.60802 313.97105,620.34973 286.52243,647.79836 252.78071,647.79836 Z"
       id="path6"
       inkscape:label="path6"
       style="fill:url(#linearGradient5715);fill-opacity:1;stroke:none;stroke-opacity:1" /><path
       d="M 252.78071,566.21124 C 241.52713,566.21124 232.38393,575.35443 232.38393,586.60802 232.38393,597.8616 241.52713,607.0048 252.78071,607.0048 264.0343,607.0048 273.17749,597.8616 273.17749,586.60802 273.17749,575.35443 264.0343,566.21124 252.78071,566.21124 Z"
       id="path5"
       inkscape:label="path5"
       style="fill:url(#linearGradient5707);fill-opacity:1;stroke:none;stroke-opacity:1" /><path
       d="M 395.55818,239.86275 C 345.78867,239.86275 303.0479,209.89716 283.94155,167.15503 L 139.59082,489.91504 C 168.96626,461.51048 208.78894,443.83055 252.78071,443.83055 320.51978,443.83055 378.68732,485.3516 403.33207,544.25342 L 460.20509,220.96445 C 441.39654,232.75923 419.3517,239.86275 395.55818,239.86275 Z"
       id="path4"
       inkscape:label="path4"
       style="fill:url(#linearGradient5699);fill-opacity:1;stroke:none;stroke-opacity:1" /><path
       d="M 395.55818,35.894947 C 350.56152,35.894947 313.97105,72.485411 313.97105,117.48207 313.97105,162.47873 350.56288,199.06919 395.55818,199.06919 440.55483,199.06919 477.1453,162.47873 477.1453,117.48207 477.1453,72.485411 440.55483,35.894947 395.55818,35.894947 Z"
       id="path3"
       inkscape:label="path3"
       style="fill:url(#linearGradient5691);fill-opacity:1;stroke:none;stroke-opacity:1" /><path
       d="M 656.656,219.87663 517.14338,109.59395 C 518.80912,135.01786 520.04925,116.27866 492.77467,271.29419 L 583.4098,325.89637 C 580.86837,318.01369 579.1292,309.77204 579.1292,301.05309 579.1292,257.44614 613.578,222.04004 656.656,219.87663 Z"
       id="path2"
       inkscape:label="path2"
       style="fill:url(#linearGradient5683);fill-opacity:1;stroke:none;stroke-opacity:1" /><path
       d="M 660.71632,260.25953 C 638.21799,260.25953 619.92275,278.55477 619.92275,301.05309 619.92275,323.55142 638.21867,341.84665 660.71632,341.84665 683.21464,341.84665 701.50988,323.55142 701.50988,301.05309 701.50988,278.55476 683.21464,260.25953 660.71632,260.25953 Z"
       id="path1"
       inkscape:label="path1"
       style="fill:url(#linearGradient1948);fill-opacity:1;stroke:none;stroke-opacity:1" /></g><metadata
     id="metadata132"><rdf:RDF><cc:Work
         rdf:about=""><dc:title>DBGware.RobotStudioLite.AppIcon</dc:title><dc:date>2023-06-04</dc:date><dc:creator><cc:Agent><dc:title>dbgli</dc:title></cc:Agent></dc:creator><dc:rights><cc:Agent><dc:title>dbgli</dc:title></cc:Agent></dc:rights><dc:publisher><cc:Agent><dc:title>dbgli</dc:title></cc:Agent></dc:publisher></cc:Work></rdf:RDF></metadata></svg>
