<?xml version="1.0" encoding="UTF-8" standalone="no"?>
<!-- Created with Inkscape (http://www.inkscape.org/) -->

<svg
   width="768"
   height="768"
   viewBox="0 0 768 768"
   version="1.1"
   id="svg5"
   inkscape:version="1.2.2 (732a01da63, 2022-12-09)"
   sodipodi:docname="Icon.svg"
   xml:space="preserve"
   xmlns:inkscape="http://www.inkscape.org/namespaces/inkscape"
   xmlns:sodipodi="http://sodipodi.sourceforge.net/DTD/sodipodi-0.dtd"
   xmlns:xlink="http://www.w3.org/1999/xlink"
   xmlns="http://www.w3.org/2000/svg"
   xmlns:svg="http://www.w3.org/2000/svg"
   xmlns:rdf="http://www.w3.org/1999/02/22-rdf-syntax-ns#"
   xmlns:cc="http://creativecommons.org/ns#"
   xmlns:dc="http://purl.org/dc/elements/1.1/"><title
     id="title134">DBGware.RobotStudioLite.Icon</title><sodipodi:namedview
     id="namedview7"
     pagecolor="#505050"
     bordercolor="#eeeeee"
     borderopacity="1"
     inkscape:showpageshadow="0"
     inkscape:pageopacity="0"
     inkscape:pagecheckerboard="true"
     inkscape:deskcolor="#505050"
     inkscape:document-units="px"
     showgrid="false"
     inkscape:zoom="1"
     inkscape:cx="188"
     inkscape:cy="295"
     inkscape:window-width="2560"
     inkscape:window-height="1334"
     inkscape:window-x="-11"
     inkscape:window-y="-11"
     inkscape:window-maximized="1"
     inkscape:current-layer="layer1"
     showguides="true"
     inkscape:lockguides="true"><sodipodi:guide
       position="768,384"
       orientation="0,-1"
       id="guide374"
       inkscape:locked="true" /><sodipodi:guide
       position="384,768"
       orientation="1,0"
       id="guide376"
       inkscape:locked="true" /><sodipodi:guide
       position="252.78071,201.78876"
       orientation="1,0"
       id="guide15793"
       inkscape:locked="true" /><sodipodi:guide
       position="273.17749,181.39198"
       orientation="0,-1"
       id="guide15795"
       inkscape:locked="true" /></sodipodi:namedview><defs
     id="defs2"><linearGradient
       inkscape:collect="always"
       id="linearGradient9359"><stop
         style="stop-color:#9646d3;stop-opacity:1;"
         offset="0"
         id="stop9355" /><stop
         style="stop-color:#7030a0;stop-opacity:1;"
         offset="1"
         id="stop9357" /></linearGradient><linearGradient
       inkscape:collect="always"
       xlink:href="#linearGradient9359"
       id="linearGradient1948"
       x1="660.71631"
       y1="260.25952"
       x2="660.71631"
       y2="341.84665"
       gradientUnits="userSpaceOnUse" /><linearGradient
       inkscape:collect="always"
       xlink:href="#linearGradient9359"
       id="linearGradient5683"
       x1="492.22278"
       y1="105.5"
       x2="492.22278"
       y2="327.01358"
       gradientUnits="userSpaceOnUse" /><linearGradient
       inkscape:collect="always"
       xlink:href="#linearGradient9359"
       id="linearGradient5691"
       x1="395.55817"
       y1="35.894947"
       x2="395.55817"
       y2="199.06918"
       gradientUnits="userSpaceOnUse" /><linearGradient
       inkscape:collect="always"
       xlink:href="#linearGradient9359"
       id="linearGradient5699"
       x1="139.13438"
       y1="165.93008"
       x2="139.13438"
       y2="546.01959"
       gradientUnits="userSpaceOnUse" /><linearGradient
       inkscape:collect="always"
       xlink:href="#linearGradient9359"
       id="linearGradient5707"
       x1="252.78072"
       y1="566.21124"
       x2="252.78072"
       y2="607.00482"
       gradientUnits="userSpaceOnUse" /><linearGradient
       inkscape:collect="always"
       xlink:href="#linearGradient9359"
       id="linearGradient5715"
       x1="252.78072"
       y1="484.62411"
       x2="252.78072"
       y2="732.60504"
       gradientUnits="userSpaceOnUse" /><filter
       style="color-interpolation-filters:sRGB;"
       inkscape:label="Drop Shadow"
       id="filter12721"
       x="-0.019684427"
       y="-0.01795435"
       width="1.0393689"
       height="1.0359087"><feFlood
         flood-opacity="0.5"
         flood-color="rgb(0,0,0)"
         result="flood"
         id="feFlood12711" /><feComposite
         in="flood"
         in2="SourceGraphic"
         operator="in"
         result="composite1"
         id="feComposite12713" /><feGaussianBlur
         in="composite1"
         stdDeviation="5"
         result="blur"
         id="feGaussianBlur12715" /><feOffset
         dx="0"
         dy="0"
         result="offset"
         id="feOffset12717" /><feComposite
         in="SourceGraphic"
         in2="offset"
         operator="over"
         result="composite2"
         id="feComposite12719" /></filter></defs><g
     inkscape:label="Layer 1"
     inkscape:groupmode="layer"
     id="layer1"
     style="display:inline;stroke:#7030a0;stroke-opacity:1;filter:url(#filter12721)"
     sodipodi:insensitive="true"><path
       d="M 415.95496,691.31149 H 375.1614 V 607.0048 c 0,-67.58949 -54.7912,-122.38068 -122.38069,-122.38068 -67.58949,0 -122.38068,54.79119 -122.38068,122.38068 v 84.30669 H 86.886899 c -11.27398,0 -20.39678,9.1228 -20.39678,20.39678 0,11.27398 9.1228,20.39678 20.39678,20.39678 H 415.95496 c 11.27398,0 20.39678,-9.1228 20.39678,-20.39678 0,-11.27398 -9.1228,-20.39678 -20.39678,-20.39678 z M 252.78071,647.79836 c -33.74171,0 -61.19034,-27.44863 -61.19034,-61.19034 0,-33.74172 27.44863,-61.19034 61.19034,-61.19034 33.74172,0 61.19034,27.44862 61.19034,61.19034 0,33.74171 -27.44862,61.19034 -61.19034,61.19034 z"
       id="path6"
       inkscape:label="path6"
       style="fill:url(#linearGradient5715);fill-opacity:1;stroke:#7030a0;stroke-opacity:1" /><path
       d="m 252.78071,566.21124 c -11.25358,0 -20.39678,9.14319 -20.39678,20.39678 0,11.25358 9.1432,20.39678 20.39678,20.39678 11.25359,0 20.39678,-9.1432 20.39678,-20.39678 0,-11.25359 -9.14319,-20.39678 -20.39678,-20.39678 z"
       id="path5"
       inkscape:label="path5"
       style="fill:url(#linearGradient5707);fill-opacity:1;stroke:#7030a0;stroke-opacity:1" /><path
       d="m 395.55818,239.86275 c -49.76951,0 -92.51028,-29.96559 -111.61663,-72.70772 L 139.59082,489.91504 c 29.37544,-28.40456 69.19812,-46.08449 113.18989,-46.08449 67.73907,0 125.90661,41.52105 150.55136,100.42287 l 56.87302,-323.28897 c -18.80855,11.79478 -40.85339,18.8983 -64.64691,18.8983 z"
       id="path4"
       inkscape:label="path4"
       style="fill:url(#linearGradient5699);fill-opacity:1;stroke:#7030a0;stroke-opacity:1" /><path
       d="m 395.55818,35.894947 c -44.99666,0 -81.58713,36.590464 -81.58713,81.587123 0,44.99666 36.59183,81.58712 81.58713,81.58712 44.99665,0 81.58712,-36.59046 81.58712,-81.58712 0,-44.996659 -36.59047,-81.587123 -81.58712,-81.587123 z"
       id="path3"
       inkscape:label="path3"
       style="fill:url(#linearGradient5691);fill-opacity:1;stroke:#7030a0;stroke-opacity:1" /><path
       d="M 656.656,219.87663 517.14338,109.59395 c 1.66574,25.42391 2.90587,6.68471 -24.36871,161.70024 l 90.63513,54.60218 c -2.54143,-7.88268 -4.2806,-16.12433 -4.2806,-24.84328 0,-43.60695 34.4488,-79.01305 77.5268,-81.17646 z"
       id="path2"
       inkscape:label="path2"
       style="fill:url(#linearGradient5683);fill-opacity:1;stroke:#7030a0;stroke-opacity:1" /><path
       d="m 660.71632,260.25953 c -22.49833,0 -40.79357,18.29524 -40.79357,40.79356 0,22.49833 18.29592,40.79356 40.79357,40.79356 22.49832,0 40.79356,-18.29523 40.79356,-40.79356 0,-22.49833 -18.29524,-40.79356 -40.79356,-40.79356 z"
       id="path1"
       inkscape:label="path1"
       style="fill:url(#linearGradient1948);fill-opacity:1;stroke:#7030a0;stroke-opacity:1" /></g><metadata
     id="metadata132"><rdf:RDF><cc:Work
         rdf:about=""><dc:title>DBGware.RobotStudioLite.Icon</dc:title><dc:date>2023-05-29</dc:date><dc:creator><cc:Agent><dc:title>dbgli</dc:title></cc:Agent></dc:creator><dc:rights><cc:Agent><dc:title>dbgli</dc:title></cc:Agent></dc:rights><dc:publisher><cc:Agent><dc:title>dbgli</dc:title></cc:Agent></dc:publisher></cc:Work></rdf:RDF></metadata></svg>
