<?xml version="1.0" encoding="UTF-8" standalone="no"?>
<!-- Created with Inkscape (http://www.inkscape.org/) -->

<svg
   width="48"
   height="48"
   viewBox="0 0 48 48"
   version="1.1"
   id="svg5"
   inkscape:version="1.2.2 (732a01da63, 2022-12-09)"
   sodipodi:docname="WinIcon.svg"
   xml:space="preserve"
   xmlns:inkscape="http://www.inkscape.org/namespaces/inkscape"
   xmlns:sodipodi="http://sodipodi.sourceforge.net/DTD/sodipodi-0.dtd"
   xmlns="http://www.w3.org/2000/svg"
   xmlns:svg="http://www.w3.org/2000/svg"
   xmlns:rdf="http://www.w3.org/1999/02/22-rdf-syntax-ns#"
   xmlns:cc="http://creativecommons.org/ns#"
   xmlns:dc="http://purl.org/dc/elements/1.1/"><title
     id="title134">DBGware.RobotStudioLite.WinIcon</title><sodipodi:namedview
     id="namedview7"
     pagecolor="#505050"
     bordercolor="#eeeeee"
     borderopacity="1"
     inkscape:showpageshadow="0"
     inkscape:pageopacity="0"
     inkscape:pagecheckerboard="true"
     inkscape:deskcolor="#505050"
     inkscape:document-units="px"
     showgrid="false"
     inkscape:zoom="16"
     inkscape:cx="16.84375"
     inkscape:cy="24.125"
     inkscape:window-width="2560"
     inkscape:window-height="1334"
     inkscape:window-x="-11"
     inkscape:window-y="-11"
     inkscape:window-maximized="1"
     inkscape:current-layer="layer1"
     showguides="true"
     inkscape:lockguides="true"><sodipodi:guide
       position="48,24"
       orientation="0,-1"
       id="guide1008"
       inkscape:locked="true" /><sodipodi:guide
       position="24,48"
       orientation="1,0"
       id="guide1010"
       inkscape:locked="true" /></sodipodi:namedview><defs
     id="defs2" /><g
     inkscape:label="layer1"
     inkscape:groupmode="layer"
     id="layer1"
     sodipodi:insensitive="true"><path
       d="M 25.997185,43.206968 H 23.447587 V 37.9378 C 23.447587,33.713457 20.023137,30.289007 15.798794,30.289007 11.574451,30.289007 8.1500019,33.713457 8.1500019,37.9378 V 43.206968 H 5.4304312 C 4.7258074,43.206968 4.1556324,43.777143 4.1556324,44.481767 4.1556324,45.186391 4.7258074,45.756566 5.4304312,45.756566 H 25.997185 C 26.701809,45.756566 27.271984,45.186391 27.271984,44.481767 27.271984,43.777143 26.701809,43.206968 25.997185,43.206968 Z M 15.798794,40.487397 C 13.689937,40.487397 11.974398,38.771858 11.974398,36.663001 11.974398,34.554144 13.689937,32.838605 15.798794,32.838605 17.907652,32.838605 19.623191,34.554144 19.623191,36.663001 19.623191,38.771858 17.907652,40.487397 15.798794,40.487397 Z"
       id="path6"
       inkscape:label="path6"
       style="fill:#000000;fill-opacity:1" /><path
       d="M 15.798794,35.388202 C 15.095446,35.388202 14.523996,35.959652 14.523996,36.663001 14.523996,37.36635 15.095446,37.9378 15.798794,37.9378 16.502144,37.9378 17.073593,37.36635 17.073593,36.663001 17.073593,35.959652 16.502144,35.388202 15.798794,35.388202 Z"
       id="path5"
       inkscape:label="path5"
       style="fill:#000000;fill-opacity:1" /><path
       d="M 24.722386,14.991422 C 21.611792,14.991422 18.940494,13.118573 17.746347,10.447189 L 8.7244263,30.61969 C 10.560391,28.844405 13.049309,27.739409 15.798794,27.739409 20.032486,27.739409 23.667957,30.334475 25.208254,34.015839 L 28.762818,13.810278 C 27.587284,14.547452 26.209481,14.991422 24.722386,14.991422 Z"
       id="path4"
       inkscape:label="path4"
       style="fill:#000000;fill-opacity:1" /><path
       d="M 24.722386,2.2434342 C 21.910095,2.2434342 19.623191,4.5303382 19.623191,7.3426294 19.623191,10.154921 21.91018,12.441824 24.722386,12.441824 27.534677,12.441824 29.821581,10.154921 29.821581,7.3426294 29.821581,4.5303382 27.534677,2.2434342 24.722386,2.2434342 Z"
       id="path3"
       inkscape:label="path3"
       style="fill:#000000;fill-opacity:1" /><path
       d="M 41.041,13.742289 32.321461,6.8496219 C 32.42557,8.4386163 32.503078,7.2674162 30.798417,16.955887 L 36.463112,20.368523 C 36.304273,19.875856 36.195575,19.360752 36.195575,18.815818 36.195575,16.090384 38.348625,13.877503 41.041,13.742289 Z"
       id="path2"
       inkscape:label="path2"
       style="fill:#000000;fill-opacity:1" /><path
       d="M 41.29477,16.266221 C 39.888624,16.266221 38.745172,17.409673 38.745172,18.815818 38.745172,20.221964 39.888667,21.365416 41.29477,21.365416 42.700915,21.365416 43.844367,20.221964 43.844367,18.815818 43.844367,17.409672 42.700915,16.266221 41.29477,16.266221 Z"
       id="path1"
       inkscape:label="path1"
       style="fill:#000000;fill-opacity:1" /></g><metadata
     id="metadata132"><rdf:RDF><cc:Work
         rdf:about=""><dc:title>DBGware.RobotStudioLite.WinIcon</dc:title><dc:date>2023-06-04</dc:date><dc:creator><cc:Agent><dc:title>dbgli</dc:title></cc:Agent></dc:creator><dc:rights><cc:Agent><dc:title>dbgli</dc:title></cc:Agent></dc:rights><dc:publisher><cc:Agent><dc:title>dbgli</dc:title></cc:Agent></dc:publisher></cc:Work></rdf:RDF></metadata></svg>
