mtllib CalibrationDomino_Model.mtl
v -194.22146875 393.29840625 20.445
vt 0.640121042728424 0.381927490234375
vn 0 0 1
v -174.788 384.896 20.445
vt 1 0
vn 0 0 1
v -193.788 395.896 20.445
vt 0.648148119449615 0.5
vn 0 0 1
v -195.474875 390.9823125 20.445
vt 0.616909742355347 0.27664989233017
vn 0 0 1
v -197.412421875 389.19865625 20.445
vt 0.58102935552597 0.195575773715973
vn 0 0 1
v -199.824109375 388.1408125 20.445
vt 0.536368191242218 0.147490859031677
vn 0 0 1
v -202.448640625 387.9233125 20.445
vt 0.487765997648239 0.137605607509613
vn 0 0 1
v -228.788 384.896 20.445
vt 0 0
vn 0 0 1
v -205.0015625 388.5698125 20.445
vt 0.440489560365677 0.166991531848907
vn 0 0 1
v -207.20625 390.01021875 20.445
vt 0.399661988019943 0.232464015483856
vn 0 0 1
v -208.823796875 392.08840625 20.445
vt 0.369707584381104 0.326928198337555
vn 0 0 1
v -209.678890625 394.57925 20.445
vt 0.353872418403625 0.440147399902344
vn 0 0 1
v -209.788 395.896 20.445
vt 0.351851880550385 0.5
vn 0 0 1
v -228.788 406.896 20.445
vt 0 1
vn 0 0 1
v -209.678890625 397.21278125 20.445
vt 0.353872418403625 0.559852600097656
vn 0 0 1
v -208.823796875 399.70359375 20.445
vt 0.369707584381104 0.6730717420578
vn 0 0 1
v -207.20625 401.7818125 20.445
vt 0.399661988019943 0.767535984516144
vn 0 0 1
v -205.0015625 403.2221875 20.445
vt 0.440489560365677 0.833008468151093
vn 0 0 1
v -202.448640625 403.8686875 20.445
vt 0.487765997648239 0.862394392490387
vn 0 0 1
v -174.788 406.896 20.445
vt 1 1
vn 0 0 1
v -199.824109375 403.65121875 20.445
vt 0.536368191242218 0.852509200572968
vn 0 0 1
v -197.412421875 402.5933125 20.445
vt 0.58102935552597 0.804424166679382
vn 0 0 1
v -195.474875 400.8096875 20.445
vt 0.616909742355347 0.723350048065186
vn 0 0 1
v -194.22146875 398.49359375 20.445
vt 0.640121042728424 0.618072509765625
vn 0 0 1
v -174.788 384.896 10.445
vt 1 0
vn 0 0 -1
v -228.788 384.896 10.445
vt 0 0
vn 0 0 -1
v -174.788 406.896 10.445
vt 1 1
vn 0 0 -1
v -228.788 406.896 10.445
vt 0 1
vn 0 0 -1
v -228.788 384.896 20.445
vt 1 0
vn 0 -1 0
v -228.788 384.896 10.445
vt 0 0
vn 0 -1 0
v -174.788 384.896 20.445
vt 1 1
vn 0 -1 0
v -174.788 384.896 10.445
vt 0 1
vn 0 -1 0
v -228.788 406.896 20.445
vt 0 1
vn -1 0 0
v -228.788 406.896 10.445
vt 1 1
vn -1 0 0
v -228.788 384.896 20.445
vt 0 0
vn -1 0 0
v -228.788 384.896 10.445
vt 1 0
vn -1 0 0
v -174.788 406.896 20.445
vt 0 1
vn 0 1 0
v -174.788 406.896 10.445
vt 1 1
vn 0 1 0
v -228.788 406.896 20.445
vt 0 0
vn 0 1 0
v -228.788 406.896 10.445
vt 1 0
vn 0 1 0
v -174.788 384.896 20.445
vt 1 0
vn 1 0 0
v -174.788 384.896 10.445
vt 0 0
vn 1 0 0
v -174.788 406.896 20.445
vt 1 1
vn 1 0 0
v -174.788 406.896 10.445
vt 0 1
vn 1 0 0
v -209.788 395.896 20.645
vt 1 1
vn -1 1.22464685258517E-16 0
v -209.678890625 397.21278125 20.645
vt 1 0.973684191703796
vn -0.98636132478714 0.16459459066391 0
v -209.678890625 397.21278125 20.445
vt 0 0.973684191703796
vn -0.98636132478714 0.16459459066391 0
v -209.788 395.896 20.445
vt 0 1
vn -1 1.22464685258517E-16 0
v -209.788 395.896 20.445
vt 0 0
vn -1 1.22464685258517E-16 0
v -209.678890625 394.57925 20.645
vt 1 0.0263158082962036
vn -0.98636132478714 -0.16459459066391 0
v -209.788 395.896 20.645
vt 1 0
vn -1 1.22464685258517E-16 0
v -209.678890625 394.57925 20.445
vt 0 0.0263158082962036
vn -0.98636132478714 -0.16459459066391 0
v -208.823796875 392.08840625 20.445
vt 0 0.0789473652839661
vn -0.879473745822906 -0.475947380065918 0
v -208.823796875 392.08840625 20.645
vt 1 0.0789473652839661
vn -0.879473745822906 -0.475947380065918 0
v -207.20625 390.01021875 20.445
vt 0 0.131578981876373
vn -0.677281558513641 -0.735723912715912 0
v -207.20625 390.01021875 20.645
vt 1 0.131578981876373
vn -0.677281558513641 -0.735723912715912 0
v -205.0015625 388.5698125 20.445
vt 0 0.184210598468781
vn -0.401695430278778 -0.915773332118988 0
v -205.0015625 388.5698125 20.645
vt 1 0.184210598468781
vn -0.401695430278778 -0.915773332118988 0
v -202.448640625 387.9233125 20.445
vt 0 0.236842095851898
vn -0.0825793445110321 -0.996584475040436 0
v -202.448640625 387.9233125 20.645
vt 1 0.236842095851898
vn -0.0825793445110321 -0.996584475040436 0
v -199.824109375 388.1408125 20.445
vt 0 0.289473652839661
vn 0.245485484600067 -0.9694002866745 0
v -199.824109375 388.1408125 20.645
vt 1 0.289473652839661
vn 0.245485484600067 -0.9694002866745 0
v -197.412421875 389.19865625 20.445
vt 0 0.342105269432068
vn 0.546948134899139 -0.837166488170624 0
v -197.412421875 389.19865625 20.645
vt 1 0.342105269432068
vn 0.546948134899139 -0.837166488170624 0
v -195.474875 390.9823125 20.445
vt 0 0.39473682641983
vn 0.789140522480011 -0.614212691783905 0
v -195.474875 390.9823125 20.645
vt 1 0.39473682641983
vn 0.789140522480011 -0.614212691783905 0
v -194.22146875 393.29840625 20.445
vt 0 0.447368443012238
vn 0.945817232131958 -0.324699461460114 0
v -194.22146875 393.29840625 20.645
vt 1 0.447368443012238
vn 0.945817232131958 -0.324699461460114 0
v -193.788 395.896 20.445
vt 0 0.5
vn 1 0 0
v -193.788 395.896 20.645
vt 1 0.5
vn 1 0 0
v -194.22146875 398.49359375 20.445
vt 0 0.552631616592407
vn 0.945817232131958 0.324699461460114 0
v -194.22146875 398.49359375 20.645
vt 1 0.552631616592407
vn 0.945817232131958 0.324699461460114 0
v -195.474875 400.8096875 20.445
vt 0 0.605263113975525
vn 0.789140522480011 0.614212691783905 0
v -195.474875 400.8096875 20.645
vt 1 0.605263113975525
vn 0.789140522480011 0.614212691783905 0
v -197.412421875 402.5933125 20.445
vt 0 0.657894730567932
vn 0.546948134899139 0.837166488170624 0
v -197.412421875 402.5933125 20.645
vt 1 0.657894730567932
vn 0.546948134899139 0.837166488170624 0
v -199.824109375 403.65121875 20.445
vt 0 0.710526347160339
vn 0.245485484600067 0.9694002866745 0
v -199.824109375 403.65121875 20.645
vt 1 0.710526347160339
vn 0.245485484600067 0.9694002866745 0
v -202.448640625 403.8686875 20.445
vt 0 0.763157904148102
vn -0.0825793445110321 0.996584475040436 0
v -202.448640625 403.8686875 20.645
vt 1 0.763157904148102
vn -0.0825793445110321 0.996584475040436 0
v -205.0015625 403.2221875 20.445
vt 0 0.815789461135864
vn -0.401695430278778 0.915773332118988 0
v -205.0015625 403.2221875 20.645
vt 1 0.815789461135864
vn -0.401695430278778 0.915773332118988 0
v -207.20625 401.7818125 20.445
vt 0 0.868421018123627
vn -0.677281558513641 0.735723912715912 0
v -207.20625 401.7818125 20.645
vt 1 0.868421018123627
vn -0.677281558513641 0.735723912715912 0
v -208.823796875 399.70359375 20.445
vt 0 0.921052634716034
vn -0.879473745822906 0.475947380065918 0
v -208.823796875 399.70359375 20.645
vt 1 0.921052634716034
vn -0.879473745822906 0.475947380065918 0
v -199.824109375 403.65121875 20.645
vt 0.622742712497711 0.986361265182495
vn 0 0 1
v -205.0015625 403.2221875 20.645
vt 0.299152284860611 0.959455907344818
vn 0 0 1
v -197.412421875 402.5933125 20.645
vt 0.773474097251892 0.920017838478088
vn 0 0 1
v -202.448640625 403.8686875 20.645
vt 0.458710342645645 1
vn 0 0 1
v -207.20625 401.7818125 20.645
vt 0.161359220743179 0.869122684001923
vn 0 0 1
v -195.474875 400.8096875 20.645
vt 0.894570231437683 0.808158874511719
vn 0 0 1
v -208.823796875 399.70359375 20.645
vt 0.0602631457149982 0.738789260387421
vn 0 0 1
v -194.22146875 398.49359375 20.645
vt 0.972908556461334 0.662906110286713
vn 0 0 1
v -209.678890625 397.21278125 20.645
vt 0.0068193762563169 0.582579374313354
vn 0 0 1
v -193.788 395.896 20.645
vt 1 0.5
vn 0 0 1
v -209.788 395.896 20.645
vt 0 0.5
vn 0 0 1
v -194.22146875 393.29840625 20.645
vt 0.972908556461334 0.337093889713287
vn 0 0 1
v -209.678890625 394.57925 20.645
vt 0.0068193762563169 0.417420625686646
vn 0 0 1
v -208.823796875 392.08840625 20.645
vt 0.0602631457149982 0.261210739612579
vn 0 0 1
v -195.474875 390.9823125 20.645
vt 0.894570231437683 0.191841125488281
vn 0 0 1
v -207.20625 390.01021875 20.645
vt 0.161359220743179 0.130877315998077
vn 0 0 1
v -197.412421875 389.19865625 20.645
vt 0.773474097251892 0.0799821615219116
vn 0 0 1
v -205.0015625 388.5698125 20.645
vt 0.299152284860611 0.0405440926551819
vn 0 0 1
v -199.824109375 388.1408125 20.645
vt 0.622742712497711 0.0136387944221497
vn 0 0 1
v -202.448640625 387.9233125 20.645
vt 0.458710342645645 0
vn 0 0 1
usemtl Mat0
f 1/1/1 2/2/2 3/3/3
f 1/1/1 4/4/4 2/2/2
f 2/2/2 4/4/4 5/5/5
f 6/6/6 2/2/2 5/5/5
f 6/6/6 7/7/7 2/2/2
f 2/2/2 7/7/7 8/8/8
f 8/8/8 7/7/7 9/9/9
f 10/10/10 8/8/8 9/9/9
f 10/10/10 11/11/11 8/8/8
f 8/8/8 11/11/11 12/12/12
f 13/13/13 8/8/8 12/12/12
f 13/13/13 14/14/14 8/8/8
f 13/13/13 15/15/15 14/14/14
f 14/14/14 15/15/15 16/16/16
f 17/17/17 14/14/14 16/16/16
f 17/17/17 18/18/18 14/14/14
f 14/14/14 18/18/18 19/19/19
f 20/20/20 19/19/19 21/21/21
f 22/22/22 20/20/20 21/21/21
f 22/22/22 23/23/23 20/20/20
f 20/20/20 23/23/23 24/24/24
f 3/3/3 20/20/20 24/24/24
f 3/3/3 2/2/2 20/20/20
f 20/20/20 14/14/14 19/19/19
f 25/25/25 26/26/26 27/27/27
f 27/27/27 26/26/26 28/28/28
f 29/29/29 30/30/30 31/31/31
f 31/31/31 30/30/30 32/32/32
f 33/33/33 34/34/34 35/35/35
f 35/35/35 34/34/34 36/36/36
f 37/37/37 38/38/38 39/39/39
f 39/39/39 38/38/38 40/40/40
f 41/41/41 42/42/42 43/43/43
f 43/43/43 42/42/42 44/44/44
usemtl Mat1
f 45/45/45 46/46/46 47/47/47
f 48/48/48 45/45/45 47/47/47
f 49/49/49 50/50/50 51/51/51
f 49/49/49 52/52/52 50/50/50
f 50/50/50 52/52/52 53/53/53
f 54/54/54 53/53/53 55/55/55
f 56/56/56 55/55/55 57/57/57
f 58/58/58 57/57/57 59/59/59
f 60/60/60 59/59/59 61/61/61
f 62/62/62 61/61/61 63/63/63
f 64/64/64 63/63/63 65/65/65
f 66/66/66 65/65/65 67/67/67
f 68/68/68 67/67/67 69/69/69
f 70/70/70 69/69/69 71/71/71
f 72/72/72 71/71/71 73/73/73
f 74/74/74 73/73/73 75/75/75
f 76/76/76 75/75/75 77/77/77
f 78/78/78 77/77/77 79/79/79
f 80/80/80 79/79/79 81/81/81
f 82/82/82 81/81/81 83/83/83
f 84/84/84 83/83/83 85/85/85
f 86/86/86 85/85/85 47/47/47
f 46/46/46 86/86/86 47/47/47
f 70/70/70 68/68/68 69/69/69
f 68/68/68 66/66/66 67/67/67
f 66/66/66 64/64/64 65/65/65
f 64/64/64 62/62/62 63/63/63
f 62/62/62 60/60/60 61/61/61
f 60/60/60 58/58/58 59/59/59
f 58/58/58 56/56/56 57/57/57
f 56/56/56 54/54/54 55/55/55
f 54/54/54 50/50/50 53/53/53
f 86/86/86 84/84/84 85/85/85
f 84/84/84 82/82/82 83/83/83
f 82/82/82 80/80/80 81/81/81
f 80/80/80 78/78/78 79/79/79
f 78/78/78 76/76/76 77/77/77
f 76/76/76 74/74/74 75/75/75
f 74/74/74 72/72/72 73/73/73
f 72/72/72 70/70/70 71/71/71
f 87/87/87 88/88/88 89/89/89
f 87/87/87 90/90/90 88/88/88
f 89/89/89 91/91/91 92/92/92
f 89/89/89 88/88/88 91/91/91
f 91/91/91 93/93/93 92/92/92
f 92/92/92 93/93/93 94/94/94
f 94/94/94 93/93/93 95/95/95
f 96/96/96 95/95/95 97/97/97
f 98/98/98 97/97/97 99/99/99
f 100/100/100 98/98/98 99/99/99
f 100/100/100 101/101/101 98/98/98
f 100/100/100 102/102/102 101/101/101
f 101/101/101 102/102/102 103/103/103
f 103/103/103 102/102/102 104/104/104
f 105/105/105 104/104/104 106/106/106
f 105/105/105 103/103/103 104/104/104
f 98/98/98 96/96/96 97/97/97
f 95/95/95 96/96/96 94/94/94
