mtllib DominoPreview_Model.mtl
v -0.997248657226563 -234.258234375 15.4998916015625
vt 1 1
vn -0.0151905557140708 -1000 0.0136284232139587
v 21.00275 -234.258578125 15.5004287109375
vt 1 0
vn -0.0151905557140708 -1000 0.0136284232139587
v 21.0014296875 -234.25784375 69.5004296875
vt 0 0
vn -0.0151905557140708 -1000 0.0136284232139587
v -0.998568542480469 -234.2575 69.499890625
vt 0 1
vn -0.0151905557140708 -1000 0.0136284232139587
v 21.00290234375 -224.258578125 15.5002939453125
vt 1 0
vn 0.0151905557140708 1000 -0.0136284232139587
v -0.997097045898438 -224.258234375 15.499755859375
vt 1 1
vn 0.0151905557140708 1000 -0.0136284232139587
v -0.998416870117187 -224.2575 69.4997578125
vt 0 1
vn 0.0151905557140708 1000 -0.0136284232139587
v 21.001583984375 -224.25784375 69.5002890625
vt 0 0
vn 0.0151905557140708 1000 -0.0136284232139587
v -0.998568542480469 -234.2575 69.499890625
vt 1 1
vn -1000 0.0151902223005891 -0.0244436152279377
v -0.998416870117187 -224.2575 69.4997578125
vt 0 1
vn -1000 0.0151902223005891 -0.0244436152279377
v -0.997097045898438 -224.258234375 15.499755859375
vt 0 0
vn -1000 0.0151902223005891 -0.0244436152279377
v -0.997248657226563 -234.258234375 15.4998916015625
vt 1 0
vn -1000 0.0151902223005891 -0.0244436152279377
v 21.0014296875 -234.25784375 69.5004296875
vt 0 0
vn -0.0244434084743261 0.0136287957429886 1000
v 21.001583984375 -224.25784375 69.5002890625
vt 1 0
vn -0.0244434084743261 0.0136287957429886 1000
v -0.998416870117187 -224.2575 69.4997578125
vt 1 1
vn -0.0244434084743261 0.0136287957429886 1000
v -0.998568542480469 -234.2575 69.499890625
vt 0 1
vn -0.0244434084743261 0.0136287957429886 1000
v 21.00275 -234.258578125 15.5004287109375
vt 0 0
vn 1000 -0.0151902223005891 0.0244436152279377
v 21.00290234375 -224.258578125 15.5002939453125
vt 1 0
vn 1000 -0.0151902223005891 0.0244436152279377
v 21.001583984375 -224.25784375 69.5002890625
vt 1 1
vn 1000 -0.0151902223005891 0.0244436152279377
v 21.0014296875 -234.25784375 69.5004296875
vt 0 1
vn 1000 -0.0151902223005891 0.0244436152279377
v -0.997248657226563 -234.258234375 15.4998916015625
vt 1 1
vn 0.0244434084743261 -0.0136287957429886 -1000
v -0.997097045898438 -224.258234375 15.499755859375
vt 0 1
vn 0.0244434084743261 -0.0136287957429886 -1000
v 21.00290234375 -224.258578125 15.5002939453125
vt 0 0
vn 0.0244434084743261 -0.0136287957429886 -1000
v 21.00275 -234.258578125 15.5004287109375
vt 1 0
vn 0.0244434084743261 -0.0136287957429886 -1000
usemtl Mat0
f 2/2/2 3/3/3 1/1/1
f 1/1/1 3/3/3 4/4/4
f 6/6/6 7/7/7 5/5/5
f 5/5/5 7/7/7 8/8/8
f 9/9/9 10/10/10 12/12/12
f 12/12/12 10/10/10 11/11/11
f 13/13/13 14/14/14 16/16/16
f 16/16/16 14/14/14 15/15/15
f 17/17/17 18/18/18 20/20/20
f 20/20/20 18/18/18 19/19/19
f 21/21/21 22/22/22 24/24/24
f 24/24/24 22/22/22 23/23/23
