mtllib UnloadingArea_Model.mtl
v 319 45.74200390625 15
vt 1 1
vn 0 0 1
v -81 45.74200390625 15
vt 0 1
vn 0 0 1
v 319 -354.258 15
vt 1 0
vn 0 0 1
v -81 -354.258 15
vt 0 0
vn 0 0 1
v 319 -354.258 10
vt 1 0
vn 0 0 -1
v -81 -354.258 10
vt 0 0
vn 0 0 -1
v 319 45.74200390625 10
vt 1 1
vn 0 0 -1
v -81 45.74200390625 10
vt 0 1
vn 0 0 -1
v -81 -354.258 15
vt 1 0
vn 0 -1 0
v -81 -354.258 10
vt 0 0
vn 0 -1 0
v 319 -354.258 15
vt 1 1
vn 0 -1 0
v 319 -354.258 10
vt 0 1
vn 0 -1 0
v -81 45.74200390625 15
vt 0 1
vn -1 0 0
v -81 45.74200390625 10
vt 1 1
vn -1 0 0
v -81 -354.258 15
vt 0 0
vn -1 0 0
v -81 -354.258 10
vt 1 0
vn -1 0 0
v 319 45.74200390625 15
vt 0 1
vn 0 1 0
v 319 45.74200390625 10
vt 1 1
vn 0 1 0
v -81 45.74200390625 15
vt 0 0
vn 0 1 0
v -81 45.74200390625 10
vt 1 0
vn 0 1 0
v 319 -354.258 15
vt 1 0
vn 1 0 0
v 319 -354.258 10
vt 0 0
vn 1 0 0
v 319 45.74200390625 15
vt 1 1
vn 1 0 0
v 319 45.74200390625 10
vt 0 1
vn 1 0 0
v 21.003 -224.258 15.5
vt 1 1
vn 0 0 1
v -0.997000061035156 -224.258 15.5
vt 0 1
vn 0 0 1
v 21.003 -234.258 15.5
vt 1 0
vn 0 0 1
v -0.997000061035156 -234.258 15.5
vt 0 0
vn 0 0 1
v 21.003 -234.258 15
vt 1 0
vn 0 0 -1
v -0.997000061035156 -234.258 15
vt 0 0
vn 0 0 -1
v 21.003 -224.258 15
vt 1 1
vn 0 0 -1
v -0.997000061035156 -224.258 15
vt 0 1
vn 0 0 -1
v -0.997000061035156 -234.258 15.5
vt 1 0
vn 0 -1 0
v -0.997000061035156 -234.258 15
vt 0 0
vn 0 -1 0
v 21.003 -234.258 15.5
vt 1 1
vn 0 -1 0
v 21.003 -234.258 15
vt 0 1
vn 0 -1 0
v -0.997000061035156 -224.258 15.5
vt 0 1
vn -1 0 0
v -0.997000061035156 -224.258 15
vt 1 1
vn -1 0 0
v -0.997000061035156 -234.258 15.5
vt 0 0
vn -1 0 0
v -0.997000061035156 -234.258 15
vt 1 0
vn -1 0 0
v 21.003 -224.258 15.5
vt 0 1
vn 0 1 0
v 21.003 -224.258 15
vt 1 1
vn 0 1 0
v -0.997000061035156 -224.258 15.5
vt 0 0
vn 0 1 0
v -0.997000061035156 -224.258 15
vt 1 0
vn 0 1 0
v 21.003 -234.258 15.5
vt 1 0
vn 1 0 0
v 21.003 -234.258 15
vt 0 0
vn 1 0 0
v 21.003 -224.258 15.5
vt 1 1
vn 1 0 0
v 21.003 -224.258 15
vt 0 1
vn 1 0 0
v 141.002984375 -224.258 15.5
vt 1 1
vn 0 0 1
v 119.003 -224.258 15.5
vt 0 1
vn 0 0 1
v 141.002984375 -234.258 15.5
vt 1 0
vn 0 0 1
v 119.003 -234.258 15.5
vt 0 0
vn 0 0 1
v 141.002984375 -234.258 15
vt 1 0
vn 0 0 -1
v 119.003 -234.258 15
vt 0 0
vn 0 0 -1
v 141.002984375 -224.258 15
vt 1 1
vn 0 0 -1
v 119.003 -224.258 15
vt 0 1
vn 0 0 -1
v 119.003 -234.258 15.5
vt 1 0
vn 0 -1 0
v 119.003 -234.258 15
vt 0 0
vn 0 -1 0
v 141.002984375 -234.258 15.5
vt 1 1
vn 0 -1 0
v 141.002984375 -234.258 15
vt 0 1
vn 0 -1 0
v 119.003 -224.258 15.5
vt 0 1
vn -1 0 0
v 119.003 -224.258 15
vt 1 1
vn -1 0 0
v 119.003 -234.258 15.5
vt 0 0
vn -1 0 0
v 119.003 -234.258 15
vt 1 0
vn -1 0 0
v 141.002984375 -224.258 15.5
vt 0 1
vn 0 1 0
v 141.002984375 -224.258 15
vt 1 1
vn 0 1 0
v 119.003 -224.258 15.5
vt 0 0
vn 0 1 0
v 119.003 -224.258 15
vt 1 0
vn 0 1 0
v 141.002984375 -234.258 15.5
vt 1 0
vn 1 0 0
v 141.002984375 -234.258 15
vt 0 0
vn 1 0 0
v 141.002984375 -224.258 15.5
vt 1 1
vn 1 0 0
v 141.002984375 -224.258 15
vt 0 1
vn 1 0 0
v 21.003 -64.25800390625 15.5
vt 1 1
vn 0 0 1
v -0.997000061035156 -64.25800390625 15.5
vt 0 1
vn 0 0 1
v 21.003 -74.258 15.5
vt 1 0
vn 0 0 1
v -0.997000061035156 -74.258 15.5
vt 0 0
vn 0 0 1
v 21.003 -74.258 15
vt 1 0
vn 0 0 -1
v -0.997000061035156 -74.258 15
vt 0 0
vn 0 0 -1
v 21.003 -64.25800390625 15
vt 1 1
vn 0 0 -1
v -0.997000061035156 -64.25800390625 15
vt 0 1
vn 0 0 -1
v -0.997000061035156 -74.258 15.5
vt 1 0
vn 0 -1 0
v -0.997000061035156 -74.258 15
vt 0 0
vn 0 -1 0
v 21.003 -74.258 15.5
vt 1 1
vn 0 -1 0
v 21.003 -74.258 15
vt 0 1
vn 0 -1 0
v -0.997000061035156 -64.25800390625 15.5
vt 0 1
vn -1 0 0
v -0.997000061035156 -64.25800390625 15
vt 1 1
vn -1 0 0
v -0.997000061035156 -74.258 15.5
vt 0 0
vn -1 0 0
v -0.997000061035156 -74.258 15
vt 1 0
vn -1 0 0
v 21.003 -64.25800390625 15.5
vt 0 1
vn 0 1 0
v 21.003 -64.25800390625 15
vt 1 1
vn 0 1 0
v -0.997000061035156 -64.25800390625 15.5
vt 0 0
vn 0 1 0
v -0.997000061035156 -64.25800390625 15
vt 1 0
vn 0 1 0
v 21.003 -74.258 15.5
vt 1 0
vn 1 0 0
v 21.003 -74.258 15
vt 0 0
vn 1 0 0
v 21.003 -64.25800390625 15.5
vt 1 1
vn 1 0 0
v 21.003 -64.25800390625 15
vt 0 1
vn 1 0 0
usemtl Mat0
f 1/1/1 2/2/2 3/3/3
f 3/3/3 2/2/2 4/4/4
f 5/5/5 6/6/6 7/7/7
f 7/7/7 6/6/6 8/8/8
f 9/9/9 10/10/10 11/11/11
f 11/11/11 10/10/10 12/12/12
f 13/13/13 14/14/14 15/15/15
f 15/15/15 14/14/14 16/16/16
f 17/17/17 18/18/18 19/19/19
f 19/19/19 18/18/18 20/20/20
f 21/21/21 22/22/22 23/23/23
f 23/23/23 22/22/22 24/24/24
usemtl Mat1
f 25/25/25 26/26/26 27/27/27
f 27/27/27 26/26/26 28/28/28
f 29/29/29 30/30/30 31/31/31
f 31/31/31 30/30/30 32/32/32
f 33/33/33 34/34/34 35/35/35
f 35/35/35 34/34/34 36/36/36
f 37/37/37 38/38/38 39/39/39
f 39/39/39 38/38/38 40/40/40
f 41/41/41 42/42/42 43/43/43
f 43/43/43 42/42/42 44/44/44
f 45/45/45 46/46/46 47/47/47
f 47/47/47 46/46/46 48/48/48
f 49/49/49 50/50/50 51/51/51
f 51/51/51 50/50/50 52/52/52
f 53/53/53 54/54/54 55/55/55
f 55/55/55 54/54/54 56/56/56
f 57/57/57 58/58/58 59/59/59
f 59/59/59 58/58/58 60/60/60
f 61/61/61 62/62/62 63/63/63
f 63/63/63 62/62/62 64/64/64
f 65/65/65 66/66/66 67/67/67
f 67/67/67 66/66/66 68/68/68
f 69/69/69 70/70/70 71/71/71
f 71/71/71 70/70/70 72/72/72
f 73/73/73 74/74/74 75/75/75
f 75/75/75 74/74/74 76/76/76
f 77/77/77 78/78/78 79/79/79
f 79/79/79 78/78/78 80/80/80
f 81/81/81 82/82/82 83/83/83
f 83/83/83 82/82/82 84/84/84
f 85/85/85 86/86/86 87/87/87
f 87/87/87 86/86/86 88/88/88
f 89/89/89 90/90/90 91/91/91
f 91/91/91 90/90/90 92/92/92
f 93/93/93 94/94/94 95/95/95
f 95/95/95 94/94/94 96/96/96
